<svg preserveAspectRatio="none" width="100%" height="100%" overflow="visible" style="display: block;" viewBox="0 0 28.1667 28.1667" fill="none" xmlns="http://www.w3.org/2000/svg">
<g id="Group" stroke="currentColor" stroke-width="1.5" stroke-linecap="round" stroke-linejoin="round">
<path id="Vector" d="M16.19 16.47C16.55 17.3767 16.75 18.3767 16.75 19.4167C16.75 21.7767 15.7233 23.91 14.0833 25.3633C12.6237 26.6888 10.7216 27.4211 8.75 27.4167C4.33667 27.4167 0.75 23.83 0.75 19.4167C0.75 15.7367 3.25667 12.6167 6.64333 11.6967"/>
<path id="Vector_2" d="M21.5233 11.6967C24.91 12.6167 27.4167 15.7367 27.4167 19.4167C27.4167 23.83 23.83 27.4167 19.4167 27.4167C17.4451 27.4211 15.5429 26.6888 14.0833 25.3633"/>
<path id="Vector_3" d="M6.08333 8.75C6.08333 10.8717 6.92619 12.9066 8.42648 14.4069C9.92677 15.9071 11.9616 16.75 14.0833 16.75C16.2051 16.75 18.2399 15.9071 19.7402 14.4069C21.2405 12.9066 22.0833 10.8717 22.0833 8.75C22.0833 6.62827 21.2405 4.59344 19.7402 3.09315C18.2399 1.59285 16.2051 0.75 14.0833 0.75C11.9616 0.75 9.92677 1.59285 8.42648 3.09315C6.92619 4.59344 6.08333 6.62827 6.08333 8.75Z"/>
</g>
</svg>
