<svg preserveAspectRatio="none" width="100%" height="100%" overflow="visible" style="display: block;" viewBox="0 0 26.2313 26.1898" fill="none" xmlns="http://www.w3.org/2000/svg">
<g id="Group" stroke="currentColor" stroke-width="1.5">
<path id="Vector" d="M10.2523 16.6056L1.98432 11.3442C1.60603 11.1033 1.29461 10.7709 1.07886 10.3778C0.863108 9.9846 0.75 9.54337 0.75 9.09489C0.75 8.64642 0.863108 8.20519 1.07886 7.81202C1.29461 7.41885 1.60603 7.08645 1.98432 6.84556L10.251 1.58423C11.1069 1.0394 12.1004 0.75 13.115 0.75C14.1296 0.75 15.1231 1.0394 15.979 1.58423L24.2457 6.84556C24.6239 7.08645 24.9354 7.41885 25.1511 7.81202C25.3669 8.20519 25.48 8.64642 25.48 9.09489C25.48 9.54337 25.3669 9.9846 25.1511 10.3778C24.9354 10.7709 24.6239 11.1033 24.2457 11.3442L15.979 16.6056C15.1231 17.1504 14.1296 17.4398 13.115 17.4398C12.1004 17.4398 11.1082 17.1504 10.2523 16.6056Z"/>
<path id="Vector_2" d="M21.4963 13.0949L24.247 14.8456C24.6253 15.0864 24.9367 15.4189 25.1525 15.812C25.3682 16.2052 25.4813 16.6464 25.4813 17.0949C25.4813 17.5434 25.3682 17.9846 25.1525 18.3778C24.9367 18.7709 24.6253 19.1033 24.247 19.3442L15.979 24.6056C15.1231 25.1504 14.1296 25.4398 13.115 25.4398C12.1004 25.4398 11.1069 25.1504 10.251 24.6056L1.98432 19.3442C1.60603 19.1033 1.29461 18.7709 1.07886 18.3778C0.863108 17.9846 0.75 17.5434 0.75 17.0949C0.75 16.6464 0.863108 16.2052 1.07886 15.812C1.29461 15.4189 1.60603 15.0864 1.98432 14.8456L4.73366 13.0949"/>
</g>
</svg>
