<svg preserveAspectRatio="none" width="100%" height="100%" overflow="visible" style="display: block;" viewBox="0 0 60 60" fill="none" xmlns="http://www.w3.org/2000/svg">
<g id="Background">
<rect width="60" height="60" rx="8" fill="var(--fill-0, #2563EB)"/>
<path id="Vector" d="M35.844 14H22.1557C20.4165 14 19 15.4364 19 17.2001V42.7999C19 44.5777 20.4165 46 22.1557 46H35.8443C37.5975 46 39 44.5777 39 42.7999V17.2001C38.9998 15.4364 37.5972 14 35.844 14ZM31.4825 18.8072H26.5175C26.1247 18.8072 25.8162 18.4802 25.8162 18.0961C25.8162 17.7119 26.1247 17.3849 26.5175 17.3849H31.4825C31.8748 17.3849 32.1838 17.6978 32.1838 18.0961C32.1838 18.4944 31.8748 18.8072 31.4825 18.8072Z" fill="var(--fill-0, white)"/>
</g>
</svg>
