<svg preserveAspectRatio="none" width="100%" height="100%" overflow="visible" style="display: block;" viewBox="0 0 31 26" fill="none" xmlns="http://www.w3.org/2000/svg">
<g id="Layer_1" clip-path="url(#clip0_0_6)">
<path id="Vector" d="M30.4963 4.89333C30.4188 4.74667 30.3154 4.61333 30.1863 4.50667C30.0571 4.4 29.9021 4.33333 29.7471 4.30667C29.5792 4.28 29.4112 4.29333 29.2562 4.34667C29.1012 4.4 28.9721 4.48 28.8558 4.6L25.7558 7.8C25.6267 7.93333 25.4587 8 25.2779 8C25.0971 8 24.9292 7.93333 24.8 7.8L23.4437 6.4C23.3146 6.26667 23.25 6.09333 23.25 5.90667C23.25 5.72 23.3146 5.54667 23.4437 5.41333L26.5308 2.22667C26.6471 2.10667 26.7246 1.96 26.7762 1.78667C26.8279 1.62667 26.8408 1.45333 26.8021 1.28C26.7762 1.10667 26.6988 0.946667 26.5954 0.813333C26.4921 0.68 26.3629 0.573333 26.2079 0.506667C23.8054 -0.56 20.8088 0.0399999 18.9358 1.96C17.3213 3.62667 16.8304 6.21333 17.6054 9.06667C17.6442 9.18667 17.6442 9.32 17.6054 9.44C17.5796 9.56 17.5021 9.66667 17.4117 9.76L6.94917 19.8C6.60042 20.12 6.31625 20.52 6.1225 20.9467C5.92875 21.3867 5.82542 21.8533 5.8125 22.3333C5.79958 22.8133 5.87708 23.2933 6.05792 23.7467C6.22583 24.2 6.48417 24.6 6.82 24.9467C7.14292 25.28 7.54333 25.56 7.96958 25.7333C8.40875 25.9067 8.87375 26 9.33875 25.9867C9.80375 25.9733 10.2558 25.8667 10.6821 25.6667C11.1083 25.4667 11.4829 25.1733 11.8058 24.8133L21.6096 13.9867C21.7 13.8933 21.8033 13.8267 21.9196 13.7867C22.0358 13.7467 22.1521 13.7467 22.2813 13.7867C24.9937 14.5333 27.4867 14.04 29.0883 12.4133C30.0054 11.48 30.6512 10.1467 30.8967 8.68C31.1292 7.29333 30.9742 5.90667 30.4963 4.86667V4.89333Z" fill="var(--fill-0, white)"/>
<path id="Vector_2" d="M26.4792 20.6533C25.6396 19.9333 23.8312 18.2533 21.9971 16.52L17.9929 20.9333C19.6979 22.8133 21.2479 24.5467 21.9325 25.36C22.1004 25.56 22.2942 25.7067 22.5137 25.8267C22.7462 25.9333 22.9917 26 23.2371 26.0133H23.3017C23.7796 26.0133 24.2317 25.8133 24.5675 25.48L26.5954 23.3867C26.7762 23.2 26.9183 22.9867 27.0087 22.7467C27.0862 22.5067 27.1379 22.2533 27.125 22C27.1121 21.7467 27.0475 21.4933 26.9312 21.2667C26.8279 21.04 26.6729 20.84 26.4792 20.6667V20.6533Z" fill="var(--fill-0, white)"/>
<path id="Vector_3" d="M7.18167 10.4133C7.18167 10.1733 7.11708 9.94667 7.00083 9.74667C6.975 9.72 6.975 9.69333 6.975 9.65333C6.975 9.61333 6.975 9.58667 7.00083 9.56C7.01375 9.53333 7.03958 9.50667 7.06542 9.49333C7.09125 9.48 7.11708 9.48 7.15583 9.48C7.15583 9.48 7.47875 9.52 7.86625 9.77333C8.15042 9.94667 8.96417 10.5333 10.3979 12C10.3721 12.4933 10.5271 12.9867 10.8242 13.3867L14.8412 9.53333C14.4796 9.18667 14.0146 8.98667 13.5367 8.96C13.5237 8.96 13.5237 8.96 13.5237 8.94667L13.485 8.90667L11.9996 6.78667C11.8317 6.56 11.7154 6.28 11.6767 6C11.6379 5.72 11.6638 5.42667 11.7542 5.14667C11.8833 4.74667 12.1417 4.38667 12.4646 4.12C12.8133 3.84 13.5883 3.50667 14.2471 3.45333C14.5571 3.42667 14.8671 3.45333 15.1642 3.50667C15.3062 3.54667 15.4612 3.58667 15.5904 3.64C15.6421 3.65333 15.6808 3.66667 15.7196 3.68C15.9133 3.72 16.12 3.70667 16.3008 3.62667C16.4817 3.54667 16.6367 3.41333 16.74 3.25333C16.8562 3.08 16.9079 2.88 16.9079 2.68C16.895 2.48 16.8304 2.28 16.7142 2.12C16.7142 2.09333 16.6367 2.01333 16.5463 1.89333C16.3654 1.66667 16.1717 1.44 15.965 1.24C15.4612 0.773333 14.1825 0 12.5033 0C11.5475 0 10.5917 0.186667 9.70042 0.56C7.38833 1.52 5.86417 2.84 5.16667 3.54667H5.15375C4.68875 4.02667 4.24958 4.54667 3.86208 5.09333C3.70708 5.30667 3.60375 5.56 3.57792 5.82667C3.55208 5.93333 3.50042 6.04 3.41 6.10667C3.31958 6.17333 3.21625 6.21333 3.1 6.2H3.03542C2.7125 6.2 2.38958 6.33333 2.15708 6.57333L0.374583 8.37333H0.34875C0.129167 8.64 0 8.96 0 9.29333C0 9.62667 0.11625 9.94667 0.335833 10.2C0.34875 10.2 0.361667 10.2267 0.374583 10.24L3.255 13.1333C3.4875 13.3733 3.81042 13.5067 4.13333 13.5067C4.46917 13.5067 4.77917 13.3733 5.02458 13.1333L6.80708 11.3333C6.92333 11.2133 7.01375 11.0667 7.07833 10.9067C7.14292 10.7467 7.18167 10.5733 7.18167 10.4V10.4133Z" fill="var(--fill-0, white)"/>
</g>
<defs>
<clipPath id="clip0_0_6">
<rect width="31" height="26" fill="white"/>
</clipPath>
</defs>
</svg>
