<svg preserveAspectRatio="none" width="100%" height="100%" overflow="visible" style="display: block;" viewBox="0 0 60 60" fill="none" xmlns="http://www.w3.org/2000/svg">
<g id="Background">
<rect width="60" height="60" rx="8" fill="var(--fill-0, #2563EB)"/>
<path id="Vector" d="M37.7724 29.0252H44.0009C43.8812 32.0674 42.8497 34.8262 41.1757 37.0897C39.9712 36.39 38.5424 35.7807 36.9492 35.33C37.4378 33.4192 37.7296 31.4019 37.7734 29.0252H37.7724ZM36.9482 21.7099C38.5415 21.2593 39.9703 20.7164 41.1747 20.0177C42.845 22.2755 43.8755 25.0325 44 28.0746H37.7724C37.7277 25.6029 37.4368 23.6179 36.9482 21.7099ZM40.4484 18.9739C40.3353 19.0376 40.2203 19.1013 40.1024 19.1631C39.0738 19.704 37.9121 20.1574 36.6364 20.5168C35.8407 17.9481 34.6724 15.8481 33.2731 14.4829C36.0974 15.2416 38.5823 16.8301 40.4475 18.9729L40.4484 18.9739ZM32.0059 42.1159C31.4669 42.5494 30.9145 42.8412 30.3546 42.9886C30.2795 42.9933 30.2035 42.9971 30.1274 43L30.1141 35.5525C31.9393 35.5905 33.7084 35.7968 35.3816 36.1685C35.43 36.179 35.4776 36.1904 35.5251 36.2018C35.1952 37.257 34.7988 38.2277 34.3397 39.1023C33.6628 40.3904 32.8548 41.4333 32.0049 42.1168L32.0059 42.1159ZM26.9979 42.1159C26.1471 41.4314 25.34 40.3895 24.6632 39.1013C24.204 38.2267 23.8076 37.2561 23.4777 36.2009C23.5262 36.1894 23.6127 36.179 23.6612 36.1676C25.3286 35.7968 27.1424 35.5905 28.9486 35.5516V42.999C28.8536 42.9962 28.7623 42.9924 28.6901 42.9886C28.133 42.8412 27.5369 42.5503 26.9979 42.1159ZM26.9979 14.8851C27.5379 14.4506 28.1339 14.1597 28.691 14.0124C28.7633 14.0086 28.8536 14.0048 28.9486 14.0019V21.4494C27.1424 21.4104 25.3286 21.2041 23.6612 20.8334C23.6127 20.8229 23.5452 20.8115 23.4977 20.8001C23.8276 19.7449 24.2145 18.7742 24.6736 17.8996C25.3505 16.6115 26.1471 15.5686 26.9979 14.8851ZM30.3499 14.0124C30.9107 14.1588 31.465 14.4497 32.0059 14.8851C32.8567 15.5695 33.6638 16.6115 34.3406 17.8996C34.7998 18.7742 35.1962 19.7449 35.5261 20.8001C35.4776 20.8115 35.43 20.822 35.3816 20.8334C33.7008 21.207 31.9222 21.4133 30.0884 21.4504L30.0751 14C30.1664 14.0038 30.2586 14.0076 30.3499 14.0133V14.0124ZM35.8388 21.901C35.8987 22.1367 35.9567 22.4685 36.0099 22.7109C36.3826 24.386 36.5889 26.0782 36.6259 28.0746H30.0998L30.0903 22.6862C32.1294 22.6472 34.0687 22.3107 35.8379 21.901H35.8388ZM28.9486 22.595V28.0746H22.3779C22.4149 26.0782 22.6222 24.386 22.9939 22.7109C23.0481 22.4685 23.145 22.1843 23.2049 21.9485C24.9617 22.3554 26.7622 22.5522 28.9486 22.594V22.595ZM28.9486 29.0252V34.407C26.7622 34.4488 24.9617 34.6912 23.2049 35.0981C23.145 34.8623 23.068 34.5885 23.0138 34.3452C22.6412 32.6672 22.4149 30.9266 22.3779 29.0252H28.9496H28.9486ZM30.1122 34.3689L30.1027 29.0243H36.6269C36.5898 30.9256 36.3835 32.6663 36.0109 34.3442C35.9567 34.5866 35.8997 34.8271 35.8398 35.0629C34.0763 34.6551 32.1447 34.4098 30.1132 34.3689H30.1122ZM25.7307 14.482C24.3314 15.8471 23.1631 17.9481 22.3674 20.5168C21.0917 20.1565 19.93 19.704 18.9014 19.1631C18.7826 19.1003 18.6666 19.0366 18.5525 18.972C20.4196 16.8292 22.9045 15.2406 25.7307 14.482ZM21.2323 28.0746H15C15.1245 25.0325 16.155 22.228 17.8253 19.9702C19.0307 20.6699 20.4604 21.3059 22.0546 21.7565C21.567 23.6644 21.2751 25.6029 21.2314 28.0746H21.2323ZM22.0556 35.3462C20.4604 35.7968 19.0307 36.3729 17.8253 37.0736C16.1512 34.81 15.1198 32.0674 15 29.0252H21.2323C21.2761 31.4019 21.5679 33.4354 22.0565 35.3462H22.0556ZM18.5525 38.028C18.6675 37.9634 18.7835 37.8997 18.9023 37.8369C19.9309 37.296 21.0926 36.8435 22.3684 36.4832C23.164 39.0519 24.3324 41.1529 25.7317 42.518C22.9055 41.7603 20.4196 40.1708 18.5535 38.0271L18.5525 38.028ZM33.275 42.5171C34.6733 41.1519 35.8417 39.0509 36.6373 36.4832C37.9131 36.8426 39.0748 37.296 40.1034 37.8369C40.2212 37.8987 40.3363 37.9624 40.4503 38.0261C38.5852 40.1689 36.1002 41.7575 33.2759 42.5161L33.275 42.5171Z" fill="var(--fill-0, white)"/>
</g>
</svg>
